<svg width="248" height="248" viewBox="0 0 248 248" fill="none" xmlns="http://www.w3.org/2000/svg">
<path d="M130.58 48.9603V199.03C130.58 209.08 122.43 217.23 112.38 217.23H48.4999C38.4499 217.23 30.3199 209.08 30.3199 199.03V48.9603C30.3199 38.9103 38.4599 30.7803 48.4999 30.7803H112.38C122.43 30.7803 130.58 38.9203 130.58 48.9603Z" fill="#00C0E4"/>
<path d="M80.45 204.83C85.9728 204.83 90.45 200.353 90.45 194.83C90.45 189.307 85.9728 184.83 80.45 184.83C74.9271 184.83 70.45 189.307 70.45 194.83C70.45 200.353 74.9271 204.83 80.45 204.83Z" fill="white"/>
<path d="M154.92 146.349V164.279C154.92 173.299 147.62 180.609 138.6 180.609H130.57V130.029H138.6C147.62 130.029 154.92 137.329 154.92 146.349Z" fill="#CE86BF"/>
<path d="M217.68 146.349V164.279C217.68 173.299 210.37 180.609 201.36 180.609H183.42C174.42 180.609 167.1 173.299 167.1 164.279V146.349C167.1 137.329 174.41 130.029 183.42 130.029H201.36C210.36 130.029 217.68 137.329 217.68 146.349Z" fill="#CE86BF"/>
<path d="M217.68 83.7096V101.64C217.68 110.66 210.37 117.97 201.36 117.97H183.42C174.42 117.97 167.1 110.66 167.1 101.64V83.7096C167.1 74.6896 174.41 67.3896 183.42 67.3896H201.36C210.36 67.3896 217.68 74.6896 217.68 83.7096Z" fill="#CE86BF"/>
<path d="M154.92 83.7096V101.64C154.92 110.66 147.62 117.97 138.6 117.97H130.57V67.3896H138.6C147.62 67.3896 154.92 74.6896 154.92 83.7096Z" fill="#CE86BF"/>
<path d="M130.58 67.3896V117.97H120.68C111.66 117.97 104.36 110.66 104.36 101.64V83.7096C104.36 74.6896 111.66 67.3896 120.68 67.3896H130.58Z" fill="#0065AB"/>
<path d="M130.58 130.029V180.609H120.68C111.66 180.609 104.36 173.299 104.36 164.279V146.349C104.36 137.329 111.66 130.029 120.68 130.029H130.58Z" fill="#0065AB"/>
</svg>
