<svg width="248" height="248" viewBox="0 0 248 248" fill="none" xmlns="http://www.w3.org/2000/svg">
<path d="M213.3 117.09C213.3 162.6 176.41 199.49 130.91 199.49H130.9C85.4 199.48 48.52 162.6 48.51 117.1C48.51 71.5902 85.4 34.7002 130.91 34.7002C176.42 34.7002 213.3 71.5902 213.3 117.09Z" fill="#00C0E4"/>
<path d="M130.9 127.15C136.45 127.15 140.95 122.65 140.95 117.1C140.95 111.549 136.45 107.05 130.9 107.05C125.35 107.05 120.85 111.549 120.85 117.1C120.85 122.65 125.35 127.15 130.9 127.15Z" fill="white"/>
<path d="M99.68 127.15C105.23 127.15 109.73 122.65 109.73 117.1C109.73 111.549 105.23 107.05 99.68 107.05C94.1295 107.05 89.63 111.549 89.63 117.1C89.63 122.65 94.1295 127.15 99.68 127.15Z" fill="white"/>
<path d="M162.13 127.15C167.68 127.15 172.18 122.65 172.18 117.1C172.18 111.549 167.68 107.05 162.13 107.05C156.579 107.05 152.08 111.549 152.08 117.1C152.08 122.65 156.579 127.15 162.13 127.15Z" fill="white"/>
<path d="M130.9 199.49C130.9 207.32 123.93 213.36 116.19 212.17C100.58 209.77 86.2 203.62 74.01 194.67C66.1 188.87 59.13 181.89 53.32 173.98C44.37 161.79 38.22 147.42 35.82 131.8C34.63 124.06 40.67 117.09 48.5 117.09C48.51 162.59 85.39 199.47 130.89 199.48L130.9 199.49Z" fill="#CE86BF"/>
<path d="M130.9 178.85V199.49C85.4 199.48 48.52 162.6 48.51 117.1H69.15C73.2 117.1 76.54 120.14 77.06 124.15C77.73 129.32 79.13 134.26 81.15 138.87C82.48 141.91 81.87 145.44 79.53 147.78C76.66 150.65 76.41 155.22 78.93 158.4C82.07 162.34 85.64 165.92 89.59 169.06C92.76 171.59 97.33 171.34 100.2 168.48L100.22 168.46C102.56 166.12 106.09 165.52 109.12 166.85C113.72 168.87 118.67 170.27 123.84 170.94C127.85 171.46 130.9 174.8 130.9 178.85Z" fill="#0065AB"/>
</svg>
