<svg width="248" height="248" viewBox="0 0 248 248" fill="none" xmlns="http://www.w3.org/2000/svg">
<path d="M203.57 118.98C203.57 135.28 199.15 150.54 191.43 163.64C183.71 176.77 172.68 187.73 159.48 195.37C146.5 202.88 131.44 207.18 115.36 207.18C66.6499 207.18 27.1499 167.7 27.1499 118.99C27.1499 70.2795 66.6499 30.7695 115.36 30.7695C164.07 30.7695 203.57 70.2495 203.57 118.98Z" fill="#00C0E4"/>
<path d="M115.36 190.5C127.068 190.5 136.56 158.479 136.56 118.98C136.56 79.4806 127.068 47.46 115.36 47.46C103.651 47.46 94.1599 79.4806 94.1599 118.98C94.1599 158.479 103.651 190.5 115.36 190.5Z" stroke="white" stroke-width="10" stroke-linecap="round" stroke-linejoin="round"/>
<path d="M49.51 118.98H181.22" stroke="white" stroke-width="10" stroke-linecap="round" stroke-linejoin="round"/>
<path d="M216.54 197.14L188.79 199.73L168.99 219.31C165.46 222.79 159.47 220.29 159.47 215.33V195.38C172.66 187.75 183.7 176.78 191.42 163.65L219.6 187.29C223.4 190.48 221.47 196.68 216.53 197.15L216.54 197.14Z" fill="#CE86BF"/>
<path d="M191.43 163.64C183.71 176.77 172.68 187.73 159.48 195.37V148.82C159.48 144.07 165.03 141.48 168.66 144.54L191.43 163.64Z" fill="#0065AB"/>
</svg>
