<svg width="506" height="515" viewBox="0 0 506 515" fill="none" xmlns="http://www.w3.org/2000/svg">
<path opacity="0.41" d="M500.907 251.05C500.907 264.344 499.877 277.4 497.878 290.133C491.503 330.935 475.293 368.47 451.75 400.231C441.87 413.582 430.677 425.918 418.379 437.04C374.024 477.172 315.253 501.606 250.781 501.606C197.655 501.606 148.396 485.016 107.891 456.709C80.2664 437.431 56.7185 412.703 38.7872 384.078C23.064 359.004 11.6608 330.935 5.61961 300.92C2.35829 284.807 0.654053 268.127 0.654053 251.05C0.654053 244.93 0.874924 238.861 1.30523 232.855C1.99032 223.23 3.22462 213.753 4.97981 204.457C5.37049 202.336 5.79513 200.226 6.25374 198.128C6.68971 196.08 7.15399 194.044 7.64657 192.019C8.19572 189.722 8.77896 187.437 9.40171 185.162C9.78672 183.727 10.1888 182.292 10.602 180.869C18.8628 152.448 32.0156 126.115 49.0862 102.844C94.608 40.7736 168.003 0.493652 250.781 0.493652C306.579 0.493652 358.108 18.8017 399.717 49.7405C403.222 52.3437 406.659 55.0378 410.016 57.8225C416.675 63.3297 423.044 69.1828 429.097 75.3422C431.996 78.2972 434.827 81.3258 437.578 84.4225C468.317 118.974 489.64 162.107 497.527 209.794C499.752 223.208 500.907 237.001 500.907 251.05Z" fill="url(#paint0_linear_63_2074)"/>
<g opacity="0.63">
<path opacity="0.63" d="M451.752 400.231C441.867 413.582 430.675 425.916 418.379 437.038C370.41 418.252 295.5 403.916 200.408 433.743C166.961 444.238 136.146 451.829 107.889 456.711C80.2663 437.428 56.7207 412.703 38.7871 384.081C72.9805 394.381 121.575 398.604 189.987 386.766C311.33 365.775 401.85 384.073 451.752 400.231Z" fill="url(#paint1_linear_63_2074)"/>
<path opacity="0.63" d="M500.906 251.049C500.906 264.343 499.875 277.402 497.877 290.135C449.835 298.157 366.56 303.193 257.733 275.408C144.341 246.461 55.1449 275.945 5.61661 300.923C2.35965 284.806 0.654053 268.126 0.654053 251.049C0.654053 244.931 0.873283 238.861 1.30382 232.857C50.4178 212.224 111.106 200.923 177.828 207.546C177.828 207.546 94.8694 167.582 10.6035 180.868C18.8636 152.449 32.0131 126.113 49.0855 102.844C100.425 107.181 172.386 122.793 236.883 171.007C320.362 233.41 437.807 221.507 497.528 209.791C499.753 223.208 500.906 236.998 500.906 251.049Z" fill="url(#paint2_linear_63_2074)"/>
</g>
<path d="M498.68 284.562C456.713 293.907 396.129 296.825 331.486 296.29C392.41 278.58 451.859 258.662 500.525 237.31C500.299 233.135 499.983 228.984 499.555 224.865C432.89 252.729 345.538 276.126 261.921 294.557C141.675 289.767 25.1511 276.934 1.7312 274.259C2.1195 278.489 2.61174 282.688 3.20788 286.854C37.0263 290.343 124.885 298.814 220.829 303.283C134.335 321.028 56.5576 333.104 16.466 338.91C20.2775 349.108 24.7418 358.985 29.7943 368.502C85.3637 357.491 191.159 335.239 297.743 305.842C374.347 307.213 448.404 304.611 497.305 293.618C497.503 292.46 497.695 291.299 497.877 290.135C498.167 288.285 498.431 286.426 498.68 284.562Z" fill="white"/>
<path d="M437.578 84.4226C267.749 121.351 87.3606 177.653 4.97949 204.457C5.37016 202.336 5.79481 200.226 6.25342 198.128C89.5857 169.996 263.865 113.586 429.097 75.3423C431.996 78.2972 434.827 81.3259 437.578 84.4226Z" fill="white"/>
<path d="M410.016 57.8226C253.645 101.001 91.1032 160.315 7.64648 192.019C8.19569 189.722 8.77887 187.437 9.40168 185.162C92.949 152.38 248.697 93.7014 399.717 49.7405C403.222 52.3438 406.659 55.0378 410.016 57.8226Z" fill="white"/>
<path d="M341.353 510.341V39.6565" stroke="white" stroke-width="4" stroke-miterlimit="10" stroke-linecap="round" stroke-linejoin="round"/>
<path d="M375.005 510.341V370.58" stroke="white" stroke-width="4" stroke-miterlimit="10" stroke-linecap="round" stroke-linejoin="round"/>
<path d="M341.353 49.4138C346.982 49.4138 351.545 44.843 351.545 39.2048C351.545 33.5665 346.982 28.9958 341.353 28.9958C335.725 28.9958 331.162 33.5665 331.162 39.2048C331.162 44.843 335.725 49.4138 341.353 49.4138Z" fill="white"/>
<path d="M380.811 200.635C386.44 200.635 391.002 196.065 391.002 190.426C391.002 184.788 386.44 180.217 380.811 180.217C375.182 180.217 370.619 184.788 370.619 190.426C370.619 196.065 375.182 200.635 380.811 200.635Z" fill="white"/>
<path d="M375.005 386.045C380.634 386.045 385.197 381.474 385.197 375.836C385.197 370.198 380.634 365.627 375.005 365.627C369.377 365.627 364.814 370.198 364.814 375.836C364.814 381.474 369.377 386.045 375.005 386.045Z" fill="white"/>
<path d="M478.053 12.1545V383.251C478.053 389.308 474.747 394.882 469.436 397.78L367.769 453.25C362.458 456.148 359.152 461.722 359.152 467.78V510.341" stroke="white" stroke-width="4" stroke-miterlimit="10" stroke-linecap="round" stroke-linejoin="round"/>
<path d="M380.811 194.295V342.612C380.811 348.669 377.505 354.243 372.195 357.141L310.319 390.9C305.008 393.798 301.703 399.372 301.703 405.43V510.341" stroke="white" stroke-width="4" stroke-miterlimit="10" stroke-linecap="round" stroke-linejoin="round"/>
<path d="M285.014 510.341V432.623C285.014 426.564 281.709 420.991 276.398 418.093L85.5846 313.985C80.2732 311.087 76.9678 305.513 76.9678 299.455V43.5469" stroke="white" stroke-width="4" stroke-miterlimit="10" stroke-linecap="round" stroke-linejoin="round"/>
<path d="M320.415 510.341V438.21C320.415 432.152 317.109 426.578 311.798 423.68L200.072 362.722C194.761 359.825 191.456 354.25 191.456 348.193V181.357" stroke="white" stroke-width="4" stroke-miterlimit="10" stroke-linecap="round" stroke-linejoin="round"/>
<path d="M191.456 188.088C197.084 188.088 201.647 183.517 201.647 177.879C201.647 172.241 197.084 167.67 191.456 167.67C185.827 167.67 181.264 172.241 181.264 177.879C181.264 183.517 185.827 188.088 191.456 188.088Z" fill="white"/>
<path d="M478.052 31.2643C483.681 31.2643 488.243 26.6936 488.243 21.0554C488.243 15.4172 483.681 10.8464 478.052 10.8464C472.424 10.8464 467.861 15.4172 467.861 21.0554C467.861 26.6936 472.424 31.2643 478.052 31.2643Z" fill="#E7F2F9"/>
<path d="M77.6851 53.756C83.3136 53.756 87.8765 49.1852 87.8765 43.5468C87.8765 37.9086 83.3136 33.3379 77.6851 33.3379C72.0566 33.3379 67.4937 37.9086 67.4937 43.5468C67.4937 49.1852 72.0566 53.756 77.6851 53.756Z" fill="#E7F2F9"/>
<path d="M428.856 177.879C469.041 177.879 501.616 145.247 501.616 104.994C501.616 64.7408 469.041 32.1089 428.856 32.1089C388.672 32.1089 356.096 64.7408 356.096 104.994C356.096 145.247 388.672 177.879 428.856 177.879Z" fill="url(#paint3_linear_63_2074)"/>
<path d="M385.979 128.738V72.9023C385.979 69.7438 388.534 67.1836 391.687 67.1836H452.365C455.518 67.1836 458.073 69.7438 458.073 72.9023V109.484C458.073 112.643 455.518 115.204 452.365 115.204H401.077L388.062 129.545C387.325 130.356 385.979 129.835 385.979 128.738Z" fill="white"/>
<path d="M471.734 88.2509V141.655C471.734 142.704 470.443 143.203 469.741 142.426L457.29 128.712H408.235C405.218 128.712 402.777 126.262 402.777 123.239V120.92L403.332 120.307H452.364C458.321 120.307 463.167 115.452 463.167 109.486V82.7834H466.27C469.288 82.7834 471.734 85.2279 471.734 88.2509Z" fill="white"/>
<path d="M262.057 177.879C302.241 177.879 334.817 145.247 334.817 104.994C334.817 64.7408 302.241 32.1089 262.057 32.1089C221.873 32.1089 189.297 64.7408 189.297 104.994C189.297 145.247 221.873 177.879 262.057 177.879Z" fill="url(#paint4_linear_63_2074)"/>
<path d="M262.057 351.257C302.241 351.257 334.817 318.625 334.817 278.372C334.817 238.119 302.241 205.487 262.057 205.487C221.873 205.487 189.297 238.119 189.297 278.372C189.297 318.625 221.873 351.257 262.057 351.257Z" fill="url(#paint5_linear_63_2074)"/>
<path d="M229.989 257.787C233.676 257.787 236.665 254.793 236.665 251.1C236.665 247.406 233.676 244.412 229.989 244.412C226.302 244.412 223.313 247.406 223.313 251.1C223.313 254.793 226.302 257.787 229.989 257.787Z" fill="white"/>
<path d="M298.946 255.259H254.217C251.924 255.259 250.065 253.397 250.065 251.1C250.065 248.803 251.924 246.94 254.217 246.94H298.946C301.24 246.94 303.098 248.803 303.098 251.1C303.098 253.397 301.24 255.259 298.946 255.259Z" fill="white"/>
<path d="M229.989 284.302C233.676 284.302 236.665 281.308 236.665 277.615C236.665 273.921 233.676 270.927 229.989 270.927C226.302 270.927 223.313 273.921 223.313 277.615C223.313 281.308 226.302 284.302 229.989 284.302Z" fill="white"/>
<path d="M298.946 281.774H254.217C251.924 281.774 250.065 279.912 250.065 277.615C250.065 275.318 251.924 273.455 254.217 273.455H298.946C301.24 273.455 303.098 275.318 303.098 277.615C303.098 279.912 301.24 281.774 298.946 281.774Z" fill="white"/>
<path d="M229.989 310.817C233.676 310.817 236.665 307.823 236.665 304.129C236.665 300.435 233.676 297.441 229.989 297.441C226.302 297.441 223.313 300.435 223.313 304.129C223.313 307.823 226.302 310.817 229.989 310.817Z" fill="white"/>
<path d="M298.946 308.289H254.217C251.924 308.289 250.065 306.427 250.065 304.13C250.065 301.833 251.924 299.97 254.217 299.97H298.946C301.24 299.97 303.098 301.833 303.098 304.13C303.098 306.427 301.24 308.289 298.946 308.289Z" fill="white"/>
<path d="M428.856 351.257C469.041 351.257 501.616 318.625 501.616 278.372C501.616 238.119 469.041 205.487 428.856 205.487C388.672 205.487 356.096 238.119 356.096 278.372C356.096 318.625 388.672 351.257 428.856 351.257Z" fill="url(#paint6_linear_63_2074)"/>
<path d="M465.109 238.737C465.109 238.737 446.249 236.133 429.439 250.517C413.847 263.862 404.023 292.226 404.023 292.226L412.108 299.321L420.199 306.422C420.199 306.422 446.974 292.941 458.133 275.704C470.16 257.118 465.109 238.737 465.109 238.737ZM446.052 273.419C442.966 276.946 437.604 277.304 434.076 274.207C430.555 271.116 430.198 265.745 433.289 262.212C436.381 258.684 441.737 258.326 445.265 261.423C448.791 264.514 449.142 269.885 446.052 273.419Z" fill="white"/>
<path d="M414.016 307.777C413.507 309.683 412.295 312.615 409.447 315.542C402.885 322.303 391.663 322.728 391.663 322.728C394.539 318.02 392.088 310.137 395.423 305.35C398.016 301.641 401.379 299.537 403.451 298.51L414.016 307.777Z" fill="white"/>
<path d="M437.808 310.659C434.739 317.754 425.816 321.877 425.499 321.599C425.182 321.321 427.928 317.754 427.962 313.239C427.979 311.164 427.645 309.53 427.282 308.373C430.17 306.728 434.099 304.352 438.38 301.397C438.878 303.824 439.201 307.437 437.808 310.659Z" fill="white"/>
<path d="M406.61 273.51C404.249 278.149 402.415 282.363 401.164 285.443C399.969 285.233 398.31 285.119 396.255 285.409C391.793 286.033 388.623 289.231 388.306 288.953C387.988 288.676 390.899 279.272 397.517 275.296C400.524 273.487 404.142 273.328 406.61 273.51Z" fill="white"/>
<path d="M254.696 112.373C246.463 104.126 244.605 95.8792 244.185 92.5749C244.068 91.6612 244.382 90.7452 245.034 90.0958L251.697 83.4248C252.677 82.4436 252.851 80.9146 252.116 79.7377L241.508 63.2378C240.696 61.9344 239.027 61.4642 237.655 62.1516L220.626 70.1855C219.516 70.7328 218.864 71.9137 218.99 73.1461C219.882 81.6371 223.577 102.511 244.056 123.027C264.534 143.541 285.369 147.242 293.851 148.135C295.081 148.262 296.259 147.608 296.806 146.497L304.826 129.438C305.51 128.067 305.043 126.399 303.748 125.584L287.276 114.961C286.102 114.224 284.575 114.397 283.595 115.378L276.936 122.052C276.288 122.705 275.373 123.02 274.461 122.903C271.162 122.483 262.929 120.621 254.696 112.373Z" fill="white"/>
<path d="M110.407 415.624C110.407 415.624 109.173 420.44 107.485 427.019C104.139 440.046 99.0151 459.999 98.1375 463.266C98.0243 463.68 97.8261 464.361 97.5487 465.257C96.9259 467.253 95.9294 470.327 94.7404 473.957C90.1203 488.011 82.5673 510.341 82.5673 510.341H15.4734L29.5321 454.571C29.5321 454.571 26.5141 437.177 28.7789 425.833C29.4925 422.266 30.4154 418.937 31.344 416.05C33.3709 409.754 35.4319 405.557 35.4319 405.557L81.6217 411.762H81.6501L110.407 415.624Z" fill="url(#paint7_linear_63_2074)"/>
<path d="M97.5486 465.258C94.5195 474.99 82.5672 510.341 82.5672 510.341H62.4504C65.0606 505.049 67.5235 499.599 69.1202 495.028C74.0743 480.849 76.056 464.685 75.7729 463.125C75.4898 461.565 71.8096 462.24 61.9012 461.049C52.3043 459.904 47.8823 458.065 47.6162 457.952C48.1598 458.077 66.1703 462.325 73.5081 457.947C74.9485 457.089 76.5356 455.405 77.0774 451.927C77.6849 448.024 76.5769 441.721 76.7162 437.177C76.9336 430.09 78.4986 424.458 78.4986 424.458L97.5486 465.258Z" fill="url(#paint8_linear_63_2074)"/>
<path d="M162.87 510.341H105.311C105.311 510.341 97.8823 484.699 94.7399 473.957C94.0662 471.655 93.5849 470.038 93.4207 469.505C92.4752 466.482 81.8138 458.298 78.6035 443.512C77.3352 437.664 77.539 431.471 78.2581 426.128C79.3452 417.961 81.6213 411.762 81.6213 411.762H81.6496L158.34 414.11L159.926 447.777L162.87 510.341Z" fill="url(#paint9_linear_63_2074)"/>
<path d="M159.926 447.777C159.926 447.777 154.757 425.453 149.282 424.455C145.335 423.74 128.706 426.446 107.485 427.019C99.2983 427.234 90.4261 427.138 81.3387 426.4C80.3026 426.315 79.2721 426.225 78.2586 426.128C56.3357 424.018 39.3782 418.874 31.344 416.05C33.371 409.754 35.4319 405.557 35.4319 405.557L81.6218 411.762H81.6501L158.341 414.11L159.926 447.777Z" fill="url(#paint10_linear_63_2074)"/>
<path d="M81.3403 465.157C81.3403 465.157 72.6583 496.389 67.7517 508.564" stroke="white" stroke-width="2" stroke-miterlimit="10" stroke-linecap="round" stroke-linejoin="round"/>
<path d="M152.491 414.963C152.491 414.963 153.341 425.55 152.491 431.316C151.642 437.083 143.623 441.942 143.623 441.942" stroke="white" stroke-width="2" stroke-miterlimit="10" stroke-linecap="round" stroke-linejoin="round"/>
<path d="M141.923 422.582L149.283 506.371" stroke="white" stroke-width="2" stroke-miterlimit="10" stroke-linecap="round" stroke-linejoin="round"/>
<path d="M112.151 170.042L111.268 194.907L111.256 195.281L93.4207 195.945L95.3406 179.202L96.3932 170.042H112.151Z" fill="url(#paint11_linear_63_2074)"/>
<path d="M112.151 170.042L111.268 194.907L110.214 194.799C110.214 194.799 109.365 183.087 105.685 180.915C103.273 179.486 98.4037 179.219 95.3406 179.202L96.3937 170.042H112.151Z" fill="url(#paint12_linear_63_2074)"/>
<path d="M124.533 206.624L77.613 213.714C77.613 213.714 76.5825 204.015 77.1261 201.424C77.1374 201.355 77.1544 201.293 77.1708 201.236C77.7602 199.161 83.0768 192.003 98.7999 190.647C112.003 189.513 119.924 193.024 122.127 194.799C122.353 194.981 122.518 195.145 122.625 195.281C123.758 196.767 124.533 206.624 124.533 206.624Z" fill="url(#paint13_linear_63_2074)"/>
<path d="M124.533 206.624L77.613 213.714C77.613 213.714 76.5825 204.015 77.1261 201.424C79.8381 205.377 86.1738 202.989 97.8544 201.327C111.16 199.427 115.406 200.811 118.803 198.401C120.083 197.493 121.215 196.138 122.127 194.799C122.353 194.981 122.518 195.145 122.625 195.281C123.758 196.767 124.533 206.624 124.533 206.624Z" fill="url(#paint14_linear_63_2074)"/>
<path d="M49.7283 340.759C41.8016 355.789 29.9795 358.483 22.5056 357.774C15.2187 357.087 7.43923 352.238 4.74415 342.472C4.17796 340.419 3.83258 338.15 3.7703 335.654C3.39662 321.288 31.4177 224.967 40.2219 221.654C40.2219 221.654 46.4387 226.118 53.0292 232.147C60.3387 238.822 68.1125 247.421 68.4126 253.983C68.9788 266.46 57.655 325.729 49.7283 340.759Z" fill="url(#paint15_linear_63_2074)"/>
<path d="M49.7283 340.759C41.8016 355.789 29.9795 358.483 22.5056 357.774C15.2187 357.087 7.43921 352.238 4.74414 342.472C11.0628 350.809 23.0661 350.69 26.7973 346.714C31.3271 341.893 38.4044 325.445 37.9968 304.131C37.5948 282.812 35.0073 267.595 37.9968 238.391C37.9968 238.391 45.1195 235.436 53.0292 232.147C60.3387 238.822 68.1125 247.42 68.4126 253.983C68.9788 266.46 57.655 325.729 49.7283 340.759Z" fill="url(#paint16_linear_63_2074)"/>
<path d="M125.315 126.087C125.315 126.087 127.155 132.893 125.1 139.132C123.05 145.371 121.776 174.438 98.9868 176.139C76.1976 177.841 66.2892 166.923 63.4583 157.423C60.6613 148.042 66.8384 134.521 66.9913 134.175C66.8384 134.249 64.3529 135.53 61.3351 138.185C58.221 140.93 56.4262 144.333 55.107 144.424C53.7877 144.52 52.8478 133.795 59.5402 125.52C66.8101 116.542 72.942 119.565 72.942 119.565C72.942 119.565 73.2251 104.393 84.1243 94.7513C95.0235 85.1095 105.073 83.9752 106.772 84.826C108.471 85.6767 105.215 97.1618 105.215 97.1618C105.215 97.1618 128.015 89.9758 133.253 101.194C133.389 101.478 133.513 101.773 133.621 102.079C138.054 114.557 125.315 126.087 125.315 126.087Z" fill="url(#paint17_linear_63_2074)"/>
<path d="M125.315 126.087C125.315 126.087 127.155 132.893 125.1 139.132C123.05 145.371 121.776 174.438 98.9868 176.139C76.1976 177.841 66.2892 166.923 63.4583 157.423C60.6613 148.042 66.8384 134.521 66.9913 134.175C66.8384 134.248 64.3528 135.53 61.335 138.185C58.221 140.93 56.4262 144.333 55.1069 144.423C57.4396 136.886 67.7783 128.923 67.7783 128.923C67.7783 128.923 72.1889 139.035 81.9048 138.661C91.6263 138.281 96.4389 134.311 96.4389 134.311C96.4389 134.311 101.252 136.767 108.046 134.878C114.84 132.989 116.68 125.378 116.68 125.378C116.68 125.378 121.872 124.34 127.676 117.109C133.479 109.877 133.253 101.194 133.253 101.194C133.389 101.478 133.513 101.773 133.621 102.079C138.054 114.556 125.315 126.087 125.315 126.087Z" fill="url(#paint18_linear_63_2074)"/>
<path d="M134.023 156.646C134.023 156.646 136.706 168.556 136.004 170.893C135.291 173.23 126.826 175.05 119.273 174.109C112.304 173.236 110.531 172.039 110.531 172.039C110.531 172.039 114.302 168.432 114.24 166.571C114.195 165.204 113.708 159.975 113.708 159.975C113.708 159.975 108.68 160.616 105.498 152.744C102.316 144.872 105.849 141.151 109.676 140.833C113.351 140.527 116.04 146.437 116.04 146.437C116.04 146.437 119.811 144.798 122.722 140.646C126.045 135.893 125.315 126.087 125.315 126.087C125.315 126.087 128.655 131.475 129.748 134.595C131.639 139.983 131.543 144.168 131.684 145.087C131.826 146.006 137.063 151.394 137.912 153.169C138.762 154.944 134.023 156.646 134.023 156.646Z" fill="url(#paint19_linear_63_2074)"/>
<path d="M124.883 161.344C124.883 161.344 128.587 162.018 133.496 161.883L134.099 165.791C134.099 165.791 128.516 166.397 124.883 161.344Z" fill="white"/>
<path d="M128.024 146.638C125.957 146.586 126.041 151.431 128.32 151.571C130.481 151.703 130.442 146.699 128.024 146.638Z" fill="url(#paint20_linear_63_2074)"/>
<path d="M128.676 139.781C129.272 139.897 129.518 141.281 129.32 141.683C129.122 142.085 126.692 141.916 125.347 142.518C124.002 143.12 122.22 144.306 122.183 144.229C122.146 144.152 122.991 142.337 124.523 141.236C126.056 140.135 128.259 139.699 128.676 139.781Z" fill="url(#paint21_linear_63_2074)"/>
<path d="M134.023 156.646C134.023 156.646 133.277 154.394 133.56 153.878C133.843 153.356 137.913 153.169 137.913 153.169C138.762 154.944 134.023 156.646 134.023 156.646Z" fill="url(#paint22_linear_63_2074)"/>
<path d="M136.004 170.893C135.291 173.23 126.826 175.05 119.273 174.109C112.304 173.235 110.531 172.039 110.531 172.039C110.531 172.039 114.302 168.432 114.24 166.571C114.195 165.204 113.708 159.975 113.708 159.975C113.708 159.975 115.927 167.586 117.575 168.437C120.508 169.946 131.118 171.557 136.004 170.893Z" fill="url(#paint23_linear_63_2074)"/>
<path d="M161.409 403.714L162.825 415.482C162.825 415.482 127.483 425.266 93.4212 421.863C59.3534 418.46 32.7424 409.953 32.7424 407.968C32.7424 405.982 35.7149 403.43 36.9889 400.027C38.2628 396.624 38.6874 393.079 38.6874 393.079C38.6874 393.079 33.688 390.005 33.9711 383.863C34.2542 377.721 49.4451 342.08 49.0657 326.392C48.692 310.699 42.0846 289.997 39.2536 272.132C36.4227 254.266 38.5006 224.303 39.2536 222.408C40.0067 220.52 68.1634 210.838 96.8636 205.49C127.296 199.818 153.624 201.344 155.323 202.07C156.416 202.541 160.339 214.196 162.983 230.173C164.444 238.975 165.514 249.094 165.514 259.371C165.514 288.296 158.437 316.371 157.871 331.117C157.305 345.863 166.505 383.08 167.496 391.055C168.487 399.035 161.409 403.714 161.409 403.714Z" fill="url(#paint24_linear_63_2074)"/>
<path d="M161.409 403.714C156.336 405.183 137.872 406.561 136.723 406.646C137.719 406.487 152.203 404.083 152.067 394.498C151.925 384.572 144.4 357.592 144.565 334.52C144.848 295.011 134.232 251.43 139.095 227.031L162.983 230.173C164.444 238.975 165.514 249.094 165.514 259.371C165.514 288.296 158.436 316.371 157.87 331.117C157.304 345.863 166.505 383.081 167.495 391.055C168.486 399.035 161.409 403.714 161.409 403.714Z" fill="url(#paint25_linear_63_2074)"/>
<path d="M162.825 415.483C162.825 415.483 127.483 425.266 93.4212 421.863C59.3534 418.46 32.7424 409.953 32.7424 407.968C32.7424 405.983 35.7149 403.43 36.9889 400.027C38.2628 396.624 38.6874 393.08 38.6874 393.08C46.6141 396.908 68.8824 404.548 98.5169 406.363C129.42 408.251 151.076 405.983 161.409 403.714L162.825 415.483Z" fill="url(#paint26_linear_63_2074)"/>
<path d="M284.29 128.231C283.514 129.649 281.21 129.989 280.559 129.705C279.902 129.422 279.41 128.605 279.41 128.605C279.41 128.605 279.981 132.229 276.25 135.729C272.525 139.228 266.721 140.975 266.721 140.975L265.306 144.52L248.586 138.996L246.621 138.349C246.621 138.349 252.991 123.915 255.16 113.989C257.334 104.064 261.767 82.6535 263.562 82.2281C264.615 81.9786 265.594 82.3699 266.246 83.6517C266.699 84.5421 266.993 85.8693 267.05 87.7069C267.191 92.1989 265.798 106.588 265.798 106.588C265.804 106.588 265.815 106.582 265.821 106.582C266.195 106.514 270.628 105.737 272.525 106.554C273.651 107.036 274.297 107.921 274.653 108.658C274.982 109.333 275.072 109.889 275.072 109.889C275.072 109.889 277.371 109.815 278.719 110.915C279.494 111.556 280.168 112.73 280.598 113.598C280.904 114.233 281.085 114.71 281.085 114.71C281.085 114.71 283.282 115.526 284.347 118.498C284.494 118.907 284.613 119.36 284.703 119.848C285.304 122.871 284.964 127.006 284.29 128.231Z" fill="url(#paint27_linear_63_2074)"/>
<path d="M275.072 109.889C275.072 109.889 270.248 110.376 268.346 112.997C268.646 112.543 271.075 109.032 274.653 108.658C274.982 109.333 275.072 109.889 275.072 109.889Z" fill="url(#paint28_linear_63_2074)"/>
<path d="M281.085 114.71C281.085 114.71 277.813 114.273 273.997 116.859C274.178 116.678 276.958 113.933 280.598 113.598C280.904 114.233 281.085 114.71 281.085 114.71Z" fill="url(#paint29_linear_63_2074)"/>
<path d="M265.798 106.588C264.575 106.775 263.749 107.7 263.749 107.7C263.749 107.7 265.209 103.049 266.013 97.0199C266.97 89.8566 266.234 83.6519 266.234 83.6519H266.245C266.698 84.5423 266.993 85.8695 267.049 87.7071C267.191 92.199 265.798 106.588 265.798 106.588Z" fill="url(#paint30_linear_63_2074)"/>
<path d="M284.29 128.231C283.514 129.649 281.21 129.989 280.559 129.706C279.902 129.422 279.409 128.605 279.409 128.605C279.409 128.605 279.981 132.229 276.25 135.729C272.525 139.228 266.721 140.975 266.721 140.975L265.306 144.52L248.586 138.996L249.877 134.878C249.877 134.878 254.689 134.169 258.087 135.196C261.484 136.228 265.546 138.633 265.817 138.565C266.084 138.491 271.534 137.289 274.742 133.318C277.823 129.506 277.869 125.945 277.937 125.554C278.011 125.168 278.402 124.703 278.787 124.737C279.177 124.777 279.959 128.191 280.627 128.549C281.691 129.116 283.299 128.463 283.831 127.153C284.449 125.628 284.686 119.837 284.686 119.837C284.686 119.837 284.692 119.843 284.703 119.848C285.303 122.871 284.964 127.006 284.29 128.231Z" fill="url(#paint31_linear_63_2074)"/>
<path d="M267.383 144.378L263.533 157.349L247.261 149.284L240.393 145.875L245.981 135.661C245.981 135.661 250.737 132.859 258.783 136.188C260.872 137.056 262.475 138.094 263.692 139.149C266.727 141.746 267.383 144.378 267.383 144.378Z" fill="url(#paint32_linear_63_2074)"/>
<path d="M267.383 144.378L263.533 157.349L247.26 149.284V149.199C247.396 146.363 250.256 143.941 253.885 144.764C257.52 145.592 260.849 148.065 261.342 147.072C261.744 146.267 263.17 141.077 263.691 139.149C266.726 141.747 267.383 144.378 267.383 144.378Z" fill="url(#paint33_linear_63_2074)"/>
<path d="M265.306 156.998C265.164 160.542 260.255 176.094 256.671 187.437C253.087 198.781 238.208 233.553 224.778 244.409C213.641 253.416 150.414 260.221 150.414 260.221C150.414 260.221 136.452 252.281 138.903 228.647C141.355 205.019 155.323 202.07 155.323 202.07H206.28C206.28 202.07 233.956 149.199 235.654 146.647C237.353 144.095 247.187 142.96 252.708 144.378C256.037 145.235 259.989 148.36 262.559 151.485C262.559 151.485 262.56 151.485 262.565 151.49C264.264 153.544 265.362 155.591 265.306 156.998Z" fill="url(#paint34_linear_63_2074)"/>
<path d="M237.279 146.789C235.769 147.871 208.356 203.496 206.469 204.257C204.582 205.018 147.185 201.681 119.464 204.257C70.5827 208.799 41.8015 223.073 41.8015 223.073C41.8015 223.073 99.8327 209.69 123.268 208.799C146.703 207.908 200.618 210.689 208.733 207.665C216.849 204.64 237.421 151.128 240.393 148.25C243.366 145.371 249.594 145.513 249.594 145.513C249.594 145.513 240.951 144.156 237.279 146.789Z" fill="url(#paint35_linear_63_2074)"/>
<path d="M265.306 156.998C265.164 160.543 260.255 176.095 256.671 187.438C253.087 198.781 238.208 233.554 224.778 244.409C213.641 253.416 150.414 260.222 150.414 260.222C150.414 260.222 136.452 252.282 138.903 228.648C138.903 228.648 143.246 238.67 167.592 237.535C191.938 236.401 215.718 235.165 221.567 233.14C227.416 231.109 246.197 205.02 253.885 185.543C261.58 166.073 263.324 159.789 263.533 157.35C263.743 154.985 262.627 151.684 262.565 151.491C264.264 153.544 265.362 155.591 265.306 156.998Z" fill="url(#paint36_linear_63_2074)"/>
<path opacity="0.4" d="M214.226 456.157H261.355V503.367H214.226V456.157Z" fill="url(#paint37_linear_63_2074)"/>
<g opacity="0.4">
<path opacity="0.4" d="M234.022 442.649H205.069V471.652H234.022V442.649Z" fill="url(#paint38_linear_63_2074)"/>
</g>
<g opacity="0.4">
<path opacity="0.4" d="M190.624 418.736H178.121V431.262H190.624V418.736Z" fill="url(#paint39_linear_63_2074)"/>
</g>
<path opacity="0.51" d="M422.026 363.667C412.583 363.667 404.933 371.334 404.933 380.789C404.933 390.248 412.583 397.911 422.026 397.911C431.465 397.911 439.119 390.248 439.119 380.789C439.119 371.334 431.465 363.667 422.026 363.667ZM422.026 392.301C415.677 392.301 410.533 387.148 410.533 380.789C410.533 374.434 415.677 369.277 422.026 369.277C428.374 369.277 433.519 374.434 433.519 380.789C433.519 387.148 428.374 392.301 422.026 392.301Z" fill="url(#paint40_linear_63_2074)"/>
<path d="M422.026 366.75C422.026 368.082 422.961 369.237 424.266 369.496C429.541 370.54 433.519 375.202 433.519 380.79C433.519 386.381 429.542 391.04 424.267 392.084C422.961 392.342 422.026 393.497 422.026 394.83C422.026 396.583 423.617 397.929 425.334 397.591C433.19 396.049 439.119 389.115 439.119 380.79C439.119 372.468 433.19 365.532 425.334 363.988C423.617 363.651 422.026 364.997 422.026 366.75Z" fill="url(#paint41_linear_63_2074)"/>
<path opacity="0.51" d="M489.64 436.944C496.646 436.944 502.326 431.254 502.326 424.236C502.326 417.218 496.646 411.528 489.64 411.528C482.633 411.528 476.954 417.218 476.954 424.236C476.954 431.254 482.633 436.944 489.64 436.944Z" fill="url(#paint42_linear_63_2074)"/>
<path opacity="0.51" d="M499.027 408.224C502.671 408.224 505.624 405.266 505.624 401.616C505.624 397.966 502.671 395.008 499.027 395.008C495.384 395.008 492.43 397.966 492.43 401.616C492.43 405.266 495.384 408.224 499.027 408.224Z" fill="url(#paint43_linear_63_2074)"/>
<path opacity="0.51" d="M476.192 406.445C481.517 406.445 485.834 402.121 485.834 396.787C485.834 391.453 481.517 387.129 476.192 387.129C470.868 387.129 466.551 391.453 466.551 396.787C466.551 402.121 470.868 406.445 476.192 406.445Z" fill="url(#paint44_linear_63_2074)"/>
<path opacity="0.51" d="M456.675 446.306C441.993 446.306 430.097 458.228 430.097 472.931C430.097 487.638 441.993 499.555 456.675 499.555C471.352 499.555 483.254 487.638 483.254 472.931C483.254 458.228 471.352 446.306 456.675 446.306ZM456.675 490.832C446.804 490.832 438.805 482.818 438.805 472.931C438.805 463.048 446.804 455.029 456.675 455.029C466.546 455.029 474.546 463.048 474.546 472.931C474.546 482.818 466.546 490.832 456.675 490.832Z" fill="url(#paint45_linear_63_2074)"/>
<path d="M478.47 472.929C476.401 472.929 474.608 474.386 474.207 476.419C472.586 484.636 465.355 490.83 456.675 490.83C449.125 490.83 442.672 486.14 440.057 479.511C439.247 477.477 438.805 475.253 438.805 472.929C438.805 464.24 444.989 456.992 453.192 455.368C455.221 454.966 456.675 453.169 456.675 451.097C456.675 448.371 454.202 446.278 451.532 446.803C439.312 449.203 430.097 459.989 430.097 472.929C430.097 481.339 433.981 488.832 440.057 493.71C444.608 497.365 450.382 499.554 456.675 499.554C469.593 499.554 480.361 490.322 482.757 478.082C483.281 475.407 481.191 472.929 478.47 472.929Z" fill="url(#paint46_linear_63_2074)"/>
<path opacity="0.51" d="M27.9466 73.8875C18.504 73.8875 10.8535 81.5549 10.8535 91.0096C10.8535 100.468 18.504 108.132 27.9466 108.132C37.3852 108.132 45.0395 100.468 45.0395 91.0096C45.0395 81.5549 37.3852 73.8875 27.9466 73.8875ZM27.9466 102.522C21.5984 102.522 16.4538 97.3686 16.4538 91.0096C16.4538 84.6545 21.5984 79.4973 27.9466 79.4973C34.2949 79.4973 39.4393 84.6545 39.4393 91.0096C39.4393 97.3686 34.2949 102.522 27.9466 102.522Z" fill="url(#paint47_linear_63_2074)"/>
<path d="M27.9465 76.9701C27.9465 78.3029 28.8815 79.4583 30.1866 79.7163C35.4624 80.7605 39.4393 85.4225 39.4393 91.0102C39.4393 96.6014 35.4624 101.261 30.1872 102.304C28.8817 102.562 27.9465 103.718 27.9465 105.05C27.9465 106.803 29.5372 108.149 31.2545 107.812C39.1104 106.269 45.0395 99.3351 45.0395 91.0102C45.0395 82.6888 39.1109 75.7524 31.2545 74.2086C29.5378 73.8711 27.9465 75.2176 27.9465 76.9701Z" fill="url(#paint48_linear_63_2074)"/>
<path opacity="0.51" d="M38.2395 215.334C44.6097 215.334 49.7734 210.161 49.7734 203.78C49.7734 197.399 44.6097 192.226 38.2395 192.226C31.8693 192.226 26.7053 197.399 26.7053 203.78C26.7053 210.161 31.8693 215.334 38.2395 215.334Z" fill="url(#paint49_linear_63_2074)"/>
<path opacity="0.51" d="M46.7748 189.222C50.0871 189.222 52.7725 186.532 52.7725 183.214C52.7725 179.896 50.0871 177.206 46.7748 177.206C43.4621 177.206 40.7766 179.896 40.7766 183.214C40.7766 186.532 43.4621 189.222 46.7748 189.222Z" fill="url(#paint50_linear_63_2074)"/>
<path opacity="0.51" d="M26.0134 187.604C30.8549 187.604 34.7792 183.673 34.7792 178.824C34.7792 173.974 30.8549 170.042 26.0134 170.042C21.1722 170.042 17.2476 173.974 17.2476 178.824C17.2476 183.673 21.1722 187.604 26.0134 187.604Z" fill="url(#paint51_linear_63_2074)"/>
<path opacity="0.51" d="M152.157 33.3379C137.474 33.3379 125.578 45.2604 125.578 59.9624C125.578 74.6702 137.474 86.5868 152.157 86.5868C166.834 86.5868 178.736 74.6702 178.736 59.9624C178.736 45.2604 166.834 33.3379 152.157 33.3379ZM152.157 77.8639C142.286 77.8639 134.286 69.8504 134.286 59.9624C134.286 50.0802 142.286 42.0609 152.157 42.0609C162.028 42.0609 170.028 50.0802 170.028 59.9624C170.028 69.8504 162.028 77.8639 152.157 77.8639Z" fill="url(#paint52_linear_63_2074)"/>
<path d="M173.952 59.9608C171.883 59.9608 170.09 61.4178 169.688 63.4511C168.069 71.6676 160.836 77.8622 152.157 77.8622C144.606 77.8622 138.153 73.1723 135.538 66.5433C134.729 64.5089 134.286 62.285 134.286 59.9608C134.286 51.2724 140.471 44.0235 148.674 42.3995C150.703 41.9977 152.157 40.2014 152.157 38.1291V38.1288C152.157 35.4034 149.683 33.3102 147.014 33.8346C134.793 36.2344 125.578 47.021 125.578 59.9608C125.578 68.3707 129.463 75.8635 135.538 80.7423C140.09 84.3971 145.864 86.5858 152.157 86.5858C165.075 86.5858 175.843 77.354 178.239 65.1135C178.762 62.4393 176.672 59.9608 173.952 59.9608Z" fill="url(#paint53_linear_63_2074)"/>
<rect x="0.653809" y="397.644" width="482.6" height="116.743" fill="url(#paint54_linear_63_2074)"/>
<defs>
<linearGradient id="paint0_linear_63_2074" x1="250.781" y1="676.105" x2="250.781" y2="6.1618" gradientUnits="userSpaceOnUse">
<stop stop-color="#EAF2F7" stop-opacity="0"/>
<stop offset="1" stop-color="#A9CFCE"/>
</linearGradient>
<linearGradient id="paint1_linear_63_2074" x1="245.27" y1="527.705" x2="245.27" y2="52.6124" gradientUnits="userSpaceOnUse">
<stop stop-color="#EAF2F7" stop-opacity="0"/>
<stop offset="1" stop-color="#DAE4F5"/>
</linearGradient>
<linearGradient id="paint2_linear_63_2074" x1="250.78" y1="527.705" x2="250.78" y2="52.612" gradientUnits="userSpaceOnUse">
<stop stop-color="#EAF2F7" stop-opacity="0"/>
<stop offset="1" stop-color="#DAE4F5"/>
</linearGradient>
<linearGradient id="paint3_linear_63_2074" x1="412.15" y1="29.8529" x2="455.604" y2="224.632" gradientUnits="userSpaceOnUse">
<stop stop-color="#E8E9D5"/>
<stop offset="1" stop-color="#9EAA70"/>
</linearGradient>
<linearGradient id="paint4_linear_63_2074" x1="241.908" y1="23.953" x2="298.139" y2="249.344" gradientUnits="userSpaceOnUse">
<stop offset="0.0391061" stop-color="#DCD3D5"/>
<stop offset="1" stop-color="#CA84B4"/>
</linearGradient>
<linearGradient id="paint5_linear_63_2074" x1="248.468" y1="210.018" x2="288.514" y2="410.757" gradientUnits="userSpaceOnUse">
<stop stop-color="#D7D5E9"/>
<stop offset="1" stop-color="#7D72AA"/>
</linearGradient>
<linearGradient id="paint6_linear_63_2074" x1="410.412" y1="206.522" x2="456.419" y2="385.131" gradientUnits="userSpaceOnUse">
<stop stop-color="#E9E7D5"/>
<stop offset="1" stop-color="#AAA468"/>
</linearGradient>
<linearGradient id="paint7_linear_63_2074" x1="15.4734" y1="457.949" x2="110.407" y2="457.949" gradientUnits="userSpaceOnUse">
<stop stop-color="#D1E1F4"/>
<stop offset="1" stop-color="#5EC0E3"/>
</linearGradient>
<linearGradient id="paint8_linear_63_2074" x1="26.1275" y1="462.274" x2="143.901" y2="475.84" gradientUnits="userSpaceOnUse">
<stop stop-color="#76A3E4" stop-opacity="0"/>
<stop offset="1" stop-color="#49B2BE"/>
</linearGradient>
<linearGradient id="paint9_linear_63_2074" x1="35.813" y1="487.413" x2="179.667" y2="443.689" gradientUnits="userSpaceOnUse">
<stop stop-color="#D1E1F4"/>
<stop offset="1" stop-color="#5EC0E3"/>
</linearGradient>
<linearGradient id="paint10_linear_63_2074" x1="93.4971" y1="466.178" x2="98.4205" y2="387.532" gradientUnits="userSpaceOnUse">
<stop stop-color="#76A3E4" stop-opacity="0"/>
<stop offset="1" stop-color="#49B2BE"/>
</linearGradient>
<linearGradient id="paint11_linear_63_2074" x1="88.77" y1="208.084" x2="102.014" y2="185.795" gradientUnits="userSpaceOnUse">
<stop offset="0.153631" stop-color="#FFB8A4"/>
<stop offset="0.986034" stop-color="#EC9C95"/>
</linearGradient>
<linearGradient id="paint12_linear_63_2074" x1="147.105" y1="190.339" x2="69.9024" y2="173.38" gradientUnits="userSpaceOnUse">
<stop offset="0.103352" stop-color="#FFB8A4" stop-opacity="0"/>
<stop offset="0.986034" stop-color="#B35E6B"/>
</linearGradient>
<linearGradient id="paint13_linear_63_2074" x1="100.171" y1="187.553" x2="100.928" y2="210.995" gradientUnits="userSpaceOnUse">
<stop stop-color="#CCE6FB"/>
<stop offset="1" stop-color="#B1D4FB"/>
</linearGradient>
<linearGradient id="paint14_linear_63_2074" x1="98.5513" y1="183.279" x2="102.528" y2="225.531" gradientUnits="userSpaceOnUse">
<stop offset="0.117318" stop-color="#7FCAAD" stop-opacity="0"/>
<stop offset="0.988827" stop-color="#517C51"/>
</linearGradient>
<linearGradient id="paint15_linear_63_2074" x1="12.0443" y1="250.496" x2="63.1363" y2="348.255" gradientUnits="userSpaceOnUse">
<stop offset="0.0391061" stop-color="#CEDCDC"/>
<stop offset="1" stop-color="#7FCAAD"/>
</linearGradient>
<linearGradient id="paint16_linear_63_2074" x1="-39.2138" y1="304.066" x2="133.482" y2="284.282" gradientUnits="userSpaceOnUse">
<stop offset="0.117318" stop-color="#7FCAAD" stop-opacity="0"/>
<stop offset="0.988827" stop-color="#517C51"/>
</linearGradient>
<linearGradient id="paint17_linear_63_2074" x1="86.4921" y1="97.0824" x2="112.619" y2="185.536" gradientUnits="userSpaceOnUse">
<stop offset="0.162011" stop-color="#8A776B"/>
<stop offset="0.835195" stop-color="#4C4340"/>
</linearGradient>
<linearGradient id="paint18_linear_63_2074" x1="95.0246" y1="75.9031" x2="94.4564" y2="223.366" gradientUnits="userSpaceOnUse">
<stop offset="0.125698" stop-color="#82726C" stop-opacity="0"/>
<stop offset="0.824022" stop-color="#19130E"/>
</linearGradient>
<linearGradient id="paint19_linear_63_2074" x1="127.955" y1="128.249" x2="114.187" y2="181.337" gradientUnits="userSpaceOnUse">
<stop offset="0.153631" stop-color="#FFB8A4"/>
<stop offset="0.986034" stop-color="#EC9C95"/>
</linearGradient>
<linearGradient id="paint20_linear_63_2074" x1="128.46" y1="119.057" x2="128.178" y2="153.53" gradientUnits="userSpaceOnUse">
<stop offset="0.162011" stop-color="#8A776B"/>
<stop offset="0.835195" stop-color="#4C4340"/>
</linearGradient>
<linearGradient id="paint21_linear_63_2074" x1="119.296" y1="119.963" x2="128.83" y2="153.088" gradientUnits="userSpaceOnUse">
<stop offset="0.162011" stop-color="#8A776B"/>
<stop offset="0.835195" stop-color="#4C4340"/>
</linearGradient>
<linearGradient id="paint22_linear_63_2074" x1="139.25" y1="151.844" x2="131.694" y2="156.842" gradientUnits="userSpaceOnUse">
<stop offset="0.103352" stop-color="#FFB8A4" stop-opacity="0"/>
<stop offset="0.986034" stop-color="#B35E6B"/>
</linearGradient>
<linearGradient id="paint23_linear_63_2074" x1="150.545" y1="174.679" x2="73.342" y2="157.72" gradientUnits="userSpaceOnUse">
<stop offset="0.103352" stop-color="#FFB8A4" stop-opacity="0"/>
<stop offset="0.986034" stop-color="#B35E6B"/>
</linearGradient>
<linearGradient id="paint24_linear_63_2074" x1="83.1635" y1="186.745" x2="109.579" y2="421.529" gradientUnits="userSpaceOnUse">
<stop offset="0.0391061" stop-color="#CEDCDC"/>
<stop offset="1" stop-color="#7FCAAD"/>
</linearGradient>
<linearGradient id="paint25_linear_63_2074" x1="56.2341" y1="352.131" x2="278.282" y2="265.613" gradientUnits="userSpaceOnUse">
<stop offset="0.117318" stop-color="#7FCAAD" stop-opacity="0"/>
<stop offset="0.988827" stop-color="#517C51"/>
</linearGradient>
<linearGradient id="paint26_linear_63_2074" x1="94.8763" y1="428.956" x2="102.072" y2="386.234" gradientUnits="userSpaceOnUse">
<stop offset="0.117318" stop-color="#7FCAAD" stop-opacity="0"/>
<stop offset="0.988827" stop-color="#517C51"/>
</linearGradient>
<linearGradient id="paint27_linear_63_2074" x1="259.414" y1="99.4183" x2="267.083" y2="135.712" gradientUnits="userSpaceOnUse">
<stop offset="0.153631" stop-color="#FFB8A4"/>
<stop offset="0.986034" stop-color="#EC9C95"/>
</linearGradient>
<linearGradient id="paint28_linear_63_2074" x1="228.288" y1="113.127" x2="318.88" y2="108.322" gradientUnits="userSpaceOnUse">
<stop offset="0.103352" stop-color="#FFB8A4" stop-opacity="0"/>
<stop offset="0.986034" stop-color="#B35E6B"/>
</linearGradient>
<linearGradient id="paint29_linear_63_2074" x1="228.537" y1="117.824" x2="319.128" y2="113.019" gradientUnits="userSpaceOnUse">
<stop offset="0.103352" stop-color="#FFB8A4" stop-opacity="0"/>
<stop offset="0.986034" stop-color="#B35E6B"/>
</linearGradient>
<linearGradient id="paint30_linear_63_2074" x1="227.468" y1="97.6727" x2="318.06" y2="92.8682" gradientUnits="userSpaceOnUse">
<stop offset="0.103352" stop-color="#FFB8A4" stop-opacity="0"/>
<stop offset="0.986034" stop-color="#B35E6B"/>
</linearGradient>
<linearGradient id="paint31_linear_63_2074" x1="229.427" y1="134.604" x2="320.019" y2="129.799" gradientUnits="userSpaceOnUse">
<stop offset="0.103352" stop-color="#FFB8A4" stop-opacity="0"/>
<stop offset="0.986034" stop-color="#B35E6B"/>
</linearGradient>
<linearGradient id="paint32_linear_63_2074" x1="255.369" y1="133.998" x2="253.097" y2="151.012" gradientUnits="userSpaceOnUse">
<stop offset="0.0391061" stop-color="#CEDCDC"/>
<stop offset="1" stop-color="#7FCAAD"/>
</linearGradient>
<linearGradient id="paint33_linear_63_2074" x1="247.791" y1="136.06" x2="284.093" y2="174.186" gradientUnits="userSpaceOnUse">
<stop offset="0.117318" stop-color="#7FCAAD" stop-opacity="0"/>
<stop offset="0.988827" stop-color="#517C51"/>
</linearGradient>
<linearGradient id="paint34_linear_63_2074" x1="180.944" y1="157.834" x2="250.773" y2="296.402" gradientUnits="userSpaceOnUse">
<stop offset="0.0391061" stop-color="#CEDCDC"/>
<stop offset="1" stop-color="#7FCAAD"/>
</linearGradient>
<linearGradient id="paint35_linear_63_2074" x1="71.1336" y1="94.2794" x2="270.261" y2="333.842" gradientUnits="userSpaceOnUse">
<stop offset="0.0223464" stop-color="white"/>
<stop offset="1" stop-color="#CADBDA" stop-opacity="0"/>
</linearGradient>
<linearGradient id="paint36_linear_63_2074" x1="185.454" y1="162.713" x2="258.702" y2="324.828" gradientUnits="userSpaceOnUse">
<stop offset="0.117318" stop-color="#7FCAAD" stop-opacity="0"/>
<stop offset="0.988827" stop-color="#517C51"/>
</linearGradient>
<linearGradient id="paint37_linear_63_2074" x1="237.79" y1="371.075" x2="237.79" y2="498.122" gradientUnits="userSpaceOnUse">
<stop stop-color="#E6E7D3"/>
<stop offset="1" stop-color="#9CA870"/>
</linearGradient>
<linearGradient id="paint38_linear_63_2074" x1="219.546" y1="439.499" x2="219.546" y2="466.951" gradientUnits="userSpaceOnUse">
<stop offset="0.0391061" stop-color="#CCDADA"/>
<stop offset="1" stop-color="#7EC8AB"/>
</linearGradient>
<linearGradient id="paint39_linear_63_2074" x1="184.372" y1="417.376" x2="184.372" y2="429.231" gradientUnits="userSpaceOnUse">
<stop offset="0.0391061" stop-color="#CCDADA"/>
<stop offset="1" stop-color="#7EC8AB"/>
</linearGradient>
<linearGradient id="paint40_linear_63_2074" x1="441.43" y1="326.865" x2="422.281" y2="379.898" gradientUnits="userSpaceOnUse">
<stop stop-color="#EAF2F7" stop-opacity="0"/>
<stop offset="1" stop-color="#A9CFCE"/>
</linearGradient>
<linearGradient id="paint41_linear_63_2074" x1="422.831" y1="358.573" x2="440.069" y2="421.3" gradientUnits="userSpaceOnUse">
<stop offset="0.0391061" stop-color="#CCDADA"/>
<stop offset="1" stop-color="#7EC8AB"/>
</linearGradient>
<linearGradient id="paint42_linear_63_2074" x1="489.64" y1="350.197" x2="489.64" y2="415.083" gradientUnits="userSpaceOnUse">
<stop stop-color="#EAF2F7" stop-opacity="0"/>
<stop offset="1" stop-color="#A9CFCE"/>
</linearGradient>
<linearGradient id="paint43_linear_63_2074" x1="499.027" y1="350.197" x2="499.027" y2="415.083" gradientUnits="userSpaceOnUse">
<stop stop-color="#EAF2F7" stop-opacity="0"/>
<stop offset="1" stop-color="#A9CFCE"/>
</linearGradient>
<linearGradient id="paint44_linear_63_2074" x1="476.192" y1="350.197" x2="476.192" y2="415.083" gradientUnits="userSpaceOnUse">
<stop stop-color="#EAF2F7" stop-opacity="0"/>
<stop offset="1" stop-color="#A9CFCE"/>
</linearGradient>
<linearGradient id="paint45_linear_63_2074" x1="430.097" y1="472.931" x2="483.254" y2="472.931" gradientUnits="userSpaceOnUse">
<stop stop-color="#EAF2F7" stop-opacity="0"/>
<stop offset="1" stop-color="#A9CFCE"/>
</linearGradient>
<linearGradient id="paint46_linear_63_2074" x1="484.983" y1="523.577" x2="431.128" y2="438.425" gradientUnits="userSpaceOnUse">
<stop offset="0.0391061" stop-color="#CCDADA"/>
<stop offset="1" stop-color="#7EC8AB"/>
</linearGradient>
<linearGradient id="paint47_linear_63_2074" x1="47.3513" y1="37.0854" x2="28.2018" y2="90.118" gradientUnits="userSpaceOnUse">
<stop stop-color="#EAF2F7" stop-opacity="0"/>
<stop offset="1" stop-color="#A9CFCE"/>
</linearGradient>
<linearGradient id="paint48_linear_63_2074" x1="28.7517" y1="68.7944" x2="45.9896" y2="131.521" gradientUnits="userSpaceOnUse">
<stop offset="0.0391061" stop-color="#CCDADA"/>
<stop offset="1" stop-color="#7EC8AB"/>
</linearGradient>
<linearGradient id="paint49_linear_63_2074" x1="38.2395" y1="136.464" x2="38.2395" y2="195.459" gradientUnits="userSpaceOnUse">
<stop stop-color="#EAF2F7" stop-opacity="0"/>
<stop offset="1" stop-color="#A9CFCE"/>
</linearGradient>
<linearGradient id="paint50_linear_63_2074" x1="46.7748" y1="136.465" x2="46.7748" y2="195.459" gradientUnits="userSpaceOnUse">
<stop stop-color="#EAF2F7" stop-opacity="0"/>
<stop offset="1" stop-color="#A9CFCE"/>
</linearGradient>
<linearGradient id="paint51_linear_63_2074" x1="26.0134" y1="136.464" x2="26.0134" y2="195.459" gradientUnits="userSpaceOnUse">
<stop stop-color="#EAF2F7" stop-opacity="0"/>
<stop offset="1" stop-color="#A9CFCE"/>
</linearGradient>
<linearGradient id="paint52_linear_63_2074" x1="125.578" y1="59.9625" x2="178.736" y2="59.9625" gradientUnits="userSpaceOnUse">
<stop stop-color="#EAF2F7" stop-opacity="0"/>
<stop offset="1" stop-color="#A9CFCE"/>
</linearGradient>
<linearGradient id="paint53_linear_63_2074" x1="180.465" y1="110.609" x2="126.61" y2="25.4571" gradientUnits="userSpaceOnUse">
<stop offset="0.0391061" stop-color="#CCDADA"/>
<stop offset="1" stop-color="#7EC8AB"/>
</linearGradient>
<linearGradient id="paint54_linear_63_2074" x1="241.954" y1="397.644" x2="241.954" y2="514.387" gradientUnits="userSpaceOnUse">
<stop stop-color="#F1FAFD" stop-opacity="0"/>
<stop offset="1" stop-color="#F2FAFD"/>
</linearGradient>
</defs>
</svg>
