<svg width="248" height="248" viewBox="0 0 248 248" fill="none" xmlns="http://www.w3.org/2000/svg">
<path d="M156.87 42.9297H40.5099C31.8943 42.9297 24.9099 49.914 24.9099 58.5297V135.42C24.9099 144.035 31.8943 151.02 40.5099 151.02H156.87C165.486 151.02 172.47 144.035 172.47 135.42V58.5297C172.47 49.914 165.486 42.9297 156.87 42.9297Z" fill="#00C0E4"/>
<path d="M223.09 112.58V189.47C223.09 198.09 216.11 205.07 207.49 205.07H191.02V218.94C191.02 222.78 186.38 224.7 183.66 221.99L166.75 205.07H91.13C82.51 205.07 75.53 198.09 75.53 189.47V151.02H156.87C165.49 151.02 172.47 144.04 172.47 135.42V96.9805H207.49C216.11 96.9805 223.09 103.96 223.09 112.58Z" fill="#CE86BF"/>
<path d="M172.47 96.9805V135.42C172.47 144.04 165.49 151.02 156.87 151.02H75.53V112.58C75.53 103.96 82.51 96.9805 91.13 96.9805H172.47Z" fill="#0065AB"/>
<path d="M177.41 172.91L120.49 159.11V142.29L177.41 128.49V172.91Z" fill="white"/>
</svg>
