<svg width="248" height="248" viewBox="0 0 248 248" fill="none" xmlns="http://www.w3.org/2000/svg">
<path d="M159.63 153.16C158.02 153.66 156.37 154.1 154.71 154.48C156.27 154.02 157.9 153.57 159.63 153.16Z" fill="#F70B0B"/>
<path d="M205.54 91.1898C205.45 104.4 201.44 116.66 194.64 126.9C186.42 139.25 174.13 148.63 159.67 153.14C159.67 153.14 159.657 153.146 159.63 153.16C157.9 153.57 156.27 154.01 154.71 154.48C142.06 158.31 134.86 163.83 130.8 168.63C130.79 168.65 130.77 168.66 130.76 168.68C128.99 170.76 127.69 173.19 126.74 175.76C126.38 176.72 125.99 177.66 125.55 178.59C125.53 178.63 125.53 178.64 125.53 178.64C118.56 193.91 103.01 204.43 85.04 204.07C61.09 203.58 42.27 183.19 42.45 159.23C43.06 79.0398 86.44 48.9598 97.82 41.0398C110.67 32.0998 124.54 25.0298 141.6 25.4398C177.1 26.2898 205.76 55.6798 205.53 91.1898H205.54Z" fill="#00C0E4"/>
<path d="M122.53 76.3695C129.875 76.3695 135.83 70.4149 135.83 63.0695C135.83 55.7241 129.875 49.7695 122.53 49.7695C115.185 49.7695 109.23 55.7241 109.23 63.0695C109.23 70.4149 115.185 76.3695 122.53 76.3695Z" fill="white"/>
<path d="M88.42 114.53C95.7654 114.53 101.72 108.575 101.72 101.23C101.72 93.8843 95.7654 87.9297 88.42 87.9297C81.0746 87.9297 75.12 93.8843 75.12 101.23C75.12 108.575 81.0746 114.53 88.42 114.53Z" fill="white"/>
<path d="M75.1199 166.41C82.4653 166.41 88.4199 160.455 88.4199 153.11C88.4199 145.764 82.4653 139.81 75.1199 139.81C67.7746 139.81 61.8199 145.764 61.8199 153.11C61.8199 160.455 67.7746 166.41 75.1199 166.41Z" fill="white"/>
<path d="M195.15 147.88C191.28 155.28 186.68 165.18 183.23 175.92H133.37C132.56 173.44 131.7 171 130.81 168.63C134.87 163.83 142.07 158.31 154.72 154.48C156.28 154.01 157.91 153.57 159.64 153.16C159.64 153.16 159.653 153.154 159.68 153.14C174.14 148.63 186.43 139.25 194.65 126.9C198.35 133.28 198.66 141.19 195.16 147.88H195.15Z" fill="#CE86BF"/>
<path d="M194.64 126.9C186.42 139.25 174.13 148.63 159.67 153.14C159.67 153.14 159.657 153.147 159.63 153.16C157.9 153.57 156.27 154.01 154.71 154.48C142.06 158.31 134.86 163.83 130.8 168.63C127.82 160.73 124.41 153.57 121.43 147.88C117.33 140.03 118.45 130.49 124.18 123.74C138.13 107.28 147.44 88.48 152.75 75.73C154.79 70.81 161.76 70.81 163.81 75.73C169.12 88.48 178.44 107.28 192.39 123.74C193.23 124.74 193.99 125.8 194.63 126.9H194.64Z" fill="#0065AB"/>
<path d="M182.69 182.68H133.89C130.4 182.68 127.57 185.509 127.57 189V216.25C127.57 219.74 130.4 222.57 133.89 222.57H182.69C186.18 222.57 189.01 219.74 189.01 216.25V189C189.01 185.509 186.18 182.68 182.69 182.68Z" fill="#CE86BF"/>
</svg>
